<?xml version="1.0" standalone="yes"?>

<svg version="1.1" viewBox="0.0 0.0 945.0 150.0" fill="none" stroke="none" stroke-linecap="square" stroke-miterlimit="10" xmlns="http://www.w3.org/2000/svg" xmlns:xlink="http://www.w3.org/1999/xlink"><clipPath id="p.0"><path d="m0 0l945.0 0l0 150.0l-945.0 0l0 -150.0z" clip-rule="nonzero"></path></clipPath><g clip-path="url(#p.0)"><path fill="#000000" fill-opacity="0.0" d="m0 0l945.0 0l0 150.0l-945.0 0z" fill-rule="nonzero"></path><path fill="#0d4e78" d="m-7.6771656E-4 -2.976378E-4l155.05511 0l0 148.62993l-155.05511 0z" fill-rule="nonzero"></path><path fill="#ffffff" d="m7.0712976 6.758289l140.7874 0l0 135.11812l-140.7874 0z" fill-rule="nonzero"></path><path fill="#0d4e78" d="m12.415192 11.706247l130.20473 0l0 124.72442l-130.20473 0z" fill-rule="nonzero"></path><path fill="#ffffff" d="m73.37564 24.498873l11.436676 28.423605l-5.5402374 2.9579086l15.029884 24.655533l-5.5792694 3.65448l17.999214 40.87046l-32.593193 -32.396927l6.778 -3.8508224l-20.218449 -20.713799l7.9739113 -5.586521l-21.354729 -21.737934z" fill-rule="nonzero"></path><path fill="#0d4e78" d="m528.00037 27.33157c7.5163574 0 13.007629 1.2129784 16.473816 3.6389236c3.4850464 2.4038963 5.227539 6.384655 5.227539 11.942284c0 5.9546013 -1.6011963 10.222065 -4.80365 12.802395c-3.1836548 2.580326 -8.335815 3.870491 -15.456604 3.870491l-15.258789 0l0 -32.254093zm110.795715 0c8.477112 0 14.731323 1.4555702 18.762634 4.3667088c4.050232 2.9111385 6.0752563 7.8071423 6.0752563 14.688017c0 6.9470367 -1.9779663 12.041527 -5.93396 15.283478c-3.9559937 3.2419472 -10.087769 4.8629265 -18.395325 4.8629265l-8.477051 0l0 -39.20113zm-108.33734 56.667957c14.6936035 0 22.040466 6.020767 22.040466 18.062294c0 6.6823883 -1.7236938 11.644554 -5.1710205 14.886505c-3.4473877 3.241951 -8.787964 4.8629227 -16.021729 4.8629227l-17.12378 0l0 -37.81172zm-250.41357 -81.87577l0 145.09378l71.3772 0l0 -25.406296l-45.098175 0l0 -37.41475l41.96164 0l0 -25.20781l-41.96164 0l0 -31.85712l45.098175 0l0 -25.207813zm207.85852 0l0 145.09378l46.36975 0c14.015442 0 25.101624 -3.7050781 33.258484 -11.11525c8.175659 -7.4101715 12.26355 -17.731483 12.26355 -30.963928c0 -9.32888 -1.7425537 -16.805214 -5.227539 -22.429c-3.4662476 -5.6237946 -9.127014 -9.461205 -16.982483 -11.51223l0 -0.99243164c5.7644043 -1.1247635 10.379761 -4.4659576 13.845947 -10.023582c3.4849854 -5.5576286 5.227539 -12.670067 5.227539 -21.337322c0 -12.769312 -3.9748535 -22.076136 -11.924438 -27.920464c-7.930847 -5.866387 -20.684143 -8.799578 -38.26001 -8.799578zm116.6449 0l0 145.09378l26.279053 0l0 -55.67552l13.987183 0l29.585083 55.67552l29.161255 0c-5.651428 -9.527359 -17.80194 -30.600029 -36.451538 -63.218018c7.3468018 -3.7712479 13.026428 -8.976006 17.03894 -15.614288c4.012512 -6.660328 6.018738 -14.257961 6.018738 -22.792889c0 -14.621857 -4.0407104 -25.51657 -12.122253 -32.684147c-8.081482 -7.1896315 -20.542847 -10.784445 -37.383972 -10.784445zm114.61041 0l0 145.09378l26.278992 0l0 -145.09378zm57.47473 0l0 145.09378l71.3772 0l0 -25.406296l-45.098145 0l0 -37.41475l41.96161 0l0 -25.20781l-41.96161 0l0 -31.85712l45.098145 0l0 -25.207813zm97.23236 0l0 145.09378l25.855164 0l0 -57.362656l42.046448 0l0 -25.108574l-42.046448 0l0 -37.414745l45.182922 0l0 -25.207813zm-653.66925 -2.0841105c-13.111252 0 -23.38739 3.6720042 -30.8284 11.016013c-7.422165 7.3440084 -11.133255 17.43375 -11.133255 30.269222c0 6.8147125 1.1302795 12.769314 3.3908386 17.863808c2.260559 5.09449 5.2840576 9.56044 9.070496 13.39785c3.786438 3.83741 9.466095 7.840225 17.03897 12.008446c8.081512 4.4990387 13.431503 7.774063 16.049988 9.825096c2.6373138 2.0510254 4.63414 4.1902695 5.9904785 6.41774c1.3563385 2.2053986 2.0345001 4.7305984 2.0345001 7.575569c0 5.0944977 -1.5447083 8.931908 -4.63414 11.51223c-3.0706024 2.58033 -7.4881134 3.870491 -13.252533 3.870491c-4.8036957 0 -10.106598 -0.8931885 -15.908691 -2.6795654c-5.7832794 -1.7863846 -12.856949 -4.8629227 -21.221008 -9.229637l0 28.582085c10.172516 5.822281 21.87091 8.733429 35.095184 8.733429c14.3545685 0 25.553757 -3.7712555 33.59758 -11.313751c8.062668 -7.5424957 12.093994 -17.863808 12.093994 -30.963928c0 -9.461197 -2.147522 -17.444778 -6.4425964 -23.95073c-4.295059 -6.5280075 -12.235275 -13.033958 -23.820648 -19.51786c-8.759674 -4.8960075 -14.316879 -8.281303 -16.67163 -10.155903c-2.335907 -1.8966484 -4.040756 -3.8484344 -5.114517 -5.855358c-1.073761 -2.0289726 -1.6106567 -4.3997917 -1.6106567 -7.112442c0 -4.366707 1.3280792 -7.9063873 3.9842377 -10.61904c2.6561584 -2.7126522 6.4708557 -4.0689774 11.444092 -4.0689774c4.1820374 0 8.430008 0.62854004 12.743912 1.8856239c4.332733 1.257082 9.805176 3.4735165 16.417313 6.6493053l8.477112 -23.917652c-6.386093 -3.241949 -12.508438 -5.7561145 -18.367065 -7.542495c-5.8397827 -1.7863805 -11.980972 -2.6795707 -18.423553 -2.6795707zm209.72348 0c-11.811432 0 -22.115845 3.0324345 -30.913177 9.097308c-8.778503 6.042817 -15.513092 14.743148 -20.203735 26.101002c-4.690674 11.3358 -7.0360107 24.546192 -7.0360107 39.631184c0 23.95073 4.7754517 42.3328 14.326294 55.146225c9.550873 12.791367 23.340302 19.187057 41.368256 19.187057c12.546112 0 23.905426 -2.4810944 34.07794 -7.4432526l0 -25.803284c-12.376556 5.0944977 -22.916412 7.641739 -31.619568 7.641739c-20.740662 0 -31.110962 -16.176666 -31.110962 -48.53c0 -15.548126 2.712677 -27.66684 8.1380005 -36.35615c5.425354 -8.711359 13.083008 -13.067041 22.972961 -13.067041c4.521118 0 9.127014 0.9593525 13.817657 2.8780575c4.690674 1.918705 9.353088 4.1682205 13.987213 6.7485466l8.477112 -25.009327c-12.150513 -6.81471 -24.244507 -10.222066 -36.281982 -10.222066z" fill-rule="evenodd"></path></g></svg>

