<?xml version="1.0" standalone="yes"?>

<svg version="1.1" viewBox="0.0 0.0 1414.0 222.0" fill="none" stroke="none" stroke-linecap="square" stroke-miterlimit="10" xmlns="http://www.w3.org/2000/svg" xmlns:xlink="http://www.w3.org/1999/xlink"><clipPath id="p.0"><path d="m0 0l1414.0 0l0 222.0l-1414.0 0l0 -222.0z" clip-rule="nonzero"></path></clipPath><g clip-path="url(#p.0)"><path fill="#000000" fill-opacity="0.0" d="m0 0l1414.3596 0l0 222.02887l-1414.3596 0z" fill-rule="nonzero"></path><path fill="#1155cc" d="m-0.001148294 -4.409449E-4l232.0315 0l0 220.0315l-232.0315 0z" fill-rule="nonzero"></path><path fill="#ffffff" d="m10.5834465 10.003568l210.86613 0l0 200.0315l-210.86613 0z" fill-rule="nonzero"></path><path fill="#1155cc" d="m18.58153 17.3275l194.86615 0l0 184.59842l-194.86615 0z" fill-rule="nonzero"></path><path fill="#ffffff" d="m109.82402 36.261436l17.120499 42.072502l-8.292732 4.378731l22.498802 36.494675l-8.35112 5.409813l26.94429 60.49617l-48.788826 -47.9525l10.145439 -5.7005157l-30.265083 -30.65969l11.93544 -8.269829l-31.96598 -32.17556z" fill-rule="nonzero"></path><path fill="#1155cc" d="m385.5154 158.26929q0 29.086075 -18.10083 45.83261q-18.058533 16.746521 -50.28476 16.746521q-29.688751 0 -52.526215 -12.927139l0 -42.307022q18.777466 9.695358 31.761017 13.661636q13.025818 3.9662933 23.810211 3.9662933q12.941223 0 19.834778 -5.72908q6.9358215 -5.72908 6.9358215 -17.040329q0 -6.3166656 -3.044983 -11.213318q-3.0450134 -4.9456024 -8.965851 -9.499481q-5.87854 -4.553879 -24.021637 -14.543037q-17.001251 -9.254662 -25.501892 -17.774826q-8.50061 -8.5201645 -13.575592 -19.831413q-5.075012 -11.311249 -5.075012 -26.441883q0 -28.498474 16.662903 -44.804302q16.7052 -16.305828 46.140198 -16.305828q14.463745 0 27.574158 3.9662826q13.15271 3.9662824 27.489563 11.1643505l-12.6875 35.402744q-14.84436 -7.0511703 -24.571442 -9.842258q-9.684784 -2.791088 -19.073517 -2.791088q-11.165009 0 -17.128143 6.0228767q-5.9631042 6.022873 -5.9631042 15.718227q0 6.0228767 2.410614 10.52779q2.410614 4.455948 7.654785 8.667061q5.2864685 4.1621475 24.952087 15.0327q26.009369 14.396141 35.651855 28.890205q9.642487 14.445099 9.642487 35.451706zm140.45059 59.641144l-106.828705 0l0 -214.76686l106.828705 0l0 37.31244l-67.4975 0l0 47.15469l62.8031 0l0 37.31244l-62.8031 0l0 55.381058l67.4975 0l0 37.60623zm117.486206 -179.9517q-22.203125 0 -34.383118 19.341751q-12.179993 19.292782 -12.179993 53.81413q0 71.83378 46.56311 71.83378q19.538757 0 47.32434 -11.311249l0 38.193832q-22.837463 11.017456 -51.003723 11.017456q-40.473083 0 -61.914978 -28.400543q-21.441895 -28.449509 -21.441895 -81.627075q0 -33.49305 10.53064 -58.661808q10.53064 -25.217722 30.238525 -38.63453q19.750244 -13.465775 46.26709 -13.465775q27.024353 0 54.30249 15.130633l-12.6875 37.018635q-10.403748 -5.7290726 -20.934387 -9.989155q-10.53064 -4.2600822 -20.680603 -4.2600822zm86.78247 -34.815147l57.72809 0q39.45813 0 57.26288 13.025076q17.847107 12.97611 17.847107 41.327686q0 19.243813 -7.8239746 31.583359q-7.7816772 12.339546 -20.7229 14.836838l0 1.4689941q17.63562 4.553879 25.417297 17.040321q7.8239136 12.486443 7.8239136 33.199257q0 29.379868 -18.354553 45.832596q-18.312256 16.452728 -49.777283 16.452728l-69.40057 0l0 -214.76686zm39.331238 85.054726l22.837463 0q15.986267 0 23.133545 -5.7290726q7.189575 -5.72908 7.189575 -18.95002q0 -12.339546 -7.8239746 -17.676888q-7.781616 -5.3863106 -24.656006 -5.3863106l-20.680603 0l0 47.74229zm0 36.137238l0 55.96866l25.628723 0q16.23999 0 23.97937 -7.1980743q7.73938 -7.198059 7.73938 -22.034897q0 -26.735687 -32.987488 -26.735687l-24.359985 0zm174.5799 -25.854286l12.6875 0q18.650635 0 27.53186 -7.1980667q8.881287 -7.1980667 8.881287 -22.622498q0 -15.2775345 -9.092712 -21.741108q-9.050415 -6.4635696 -28.081665 -6.4635696l-11.92627 0l0 58.02524zm0 37.01864l0 82.41054l-39.331238 0l0 -214.76686l54.048767 0q37.808716 0 55.951843 15.963062q18.143066 15.914099 18.143066 48.37886q0 18.950012 -9.008057 33.737885q-9.008118 14.738899 -25.501892 23.11216q41.868713 72.42139 54.556213 93.57489l-43.64496 0l-44.279358 -82.41054l-20.934387 0zm132.20367 82.41054l0 -214.76686l39.3313 0l0 214.76686l-39.3313 0zm192.84998 0l-106.828735 0l0 -214.76686l106.828735 0l0 37.31244l-67.49744 0l0 47.15469l62.8031 0l0 37.31244l-62.8031 0l0 55.381058l67.49744 0l0 37.60623zm77.39368 0l-38.696777 0l0 -214.76686l106.32117 0l0 37.31244l-67.62439 0l0 55.381054l62.930054 0l0 37.165543l-62.930054 0l0 84.90782z" fill-rule="nonzero"></path></g></svg>

