<?xml version="1.0" standalone="yes"?>

<svg version="1.1" viewBox="0.0 0.0 150.0 150.0" fill="none" stroke="none" stroke-linecap="square" stroke-miterlimit="10" xmlns="http://www.w3.org/2000/svg" xmlns:xlink="http://www.w3.org/1999/xlink"><clipPath id="p.0"><path d="m0 0l150.0 0l0 150.0l-150.0 0l0 -150.0z" clip-rule="nonzero"></path></clipPath><g clip-path="url(#p.0)"><path fill="#000000" fill-opacity="0.0" d="m0 0l150.0 0l0 150.0l-150.0 0z" fill-rule="nonzero"></path><path fill="#0d4e78" d="m0 3.4120735E-6l150.01575 0l0 149.98425l-150.01575 0z" fill-rule="nonzero"></path><path fill="#ffffff" d="m6.8434477 6.8222113l136.15749 0l0 136.44095l-136.15749 0z" fill-rule="nonzero"></path><path fill="#0d4e78" d="m12.01459 11.816748l126.01575 0l0 125.88976l-126.01575 0z" fill-rule="nonzero"></path><path fill="#ffffff" d="m71.00338 24.727413l11.065765 28.691074l-5.361 2.9863968l14.542786 24.887047l-5.3987885 3.6895523l17.41558 41.254906l-31.537453 -32.699883l6.5587387 -3.8878708l-19.56353 -20.907562l7.715988 -5.640087l-20.66301 -21.941265z" fill-rule="nonzero"></path></g></svg>

